# xmcd CD database file
#
# Track frame offsets:
#	150
#	20783
#	37523
#	58211
#	75109
#	96383
#	119465
#	133743
#	154252
#	173710
#	192417
#	210624
#	227299
#	250457
#
# Disc length: 3616 seconds
#
# Revision: 0
# Processed by: cddbd v1.4PL0 Copyright (c) Steve Scherf et al.
# Submitted via: CDex 1.50Beta7
#
DISCID=b60e1e0e
DTITLE=WJJZ  -  106.1FM - Smooth Jazz Volume 9
DYEAR=2002
DGENRE=Jazz
TTITLE0=Soulful Strut - Grover Washington Jr.
TTITLE1=Ain't Nobody - Jeff Lorber
TTITLE2=Love Ballad - L.T.D.
TTITLE3=Jazzman - Ed Hamilton - Warren Hill
TTITLE4=Bright Side - Jonathan Butler
TTITLE5=Never Can Say Goodbye - Zachary Breaux
TTITLE6=Until You Come Back To Me - Hill Street Soul
TTITLE7=For The Love Of You - Candy Dulfer
TTITLE8=Rainforest - Paul Hardcastle
TTITLE9=Do I Do - Gerald Veasley
TTITLE10=You've Changed - Andy Snitzer
TTITLE11=Wake Up Everybody - Harold Melvin and The Bluenotes
TTITLE12=Walking In Rhythm - Joe McBride
TTITLE13=Rainy Night In Georgia - Eric Essex
EXTD=YEAR: 2002
EXTT0=
EXTT1=
EXTT2=
EXTT3=
EXTT4=
EXTT5=
EXTT6=
EXTT7=
EXTT8=
EXTT9=
EXTT10=
EXTT11=
EXTT12=
EXTT13=
PLAYORDER=
